<?xml version="1.0" encoding="utf-8"?>
<svg version="1.1" xmlns:xlink="http://www.w3.org/1999/xlink" width="18px" height="22px" xmlns="http://www.w3.org/2000/svg">
  <g transform="matrix(1 0 0 1 -50 -104 )">
    <path d="M 9.22275 0.2233  C 6.1257 0.2233  3.7893 2.68675  3.7893 5.9543  L 3.7893 7.9684  L 3.6133 7.9684  C 1.9853 7.9684  0.660350000000001 9.32855  0.660350000000001 10.99945  L 0.660350000000001 18.7451  C 0.660350000000001 20.416  1.9853 21.7767  3.6133 21.7767  L 14.8784 21.7767  C 16.5064 21.7767  17.83135 20.416  17.83135 18.7451  L 17.83135 10.99945  C 17.83135 9.32855  16.5064 7.9684  14.8784 7.9684  L 14.7816 7.9684  C 14.75575 7.95905  14.7288 7.9563  14.70185 7.9519  L 14.70185 5.95375  C 14.70295 2.6873  12.3473 0.2233  9.22275 0.2233  Z M 9.22275 1.122  C 11.8765 1.122  13.80425 3.15425  13.80425 5.95485  L 13.80425 7.93925  L 4.68855 7.93925  L 4.68855 5.95485  C 4.68855 3.15425  6.5954 1.122  9.22275 1.122  Z M 16.93375 10.99945  L 16.93375 18.7451  C 16.93375 19.921  16.0114 20.878  14.8795 20.878  L 3.61385 20.878  C 2.48085 20.878  1.5596 19.921  1.5596 18.7451  L 1.5596 10.99945  C 1.5596 9.8241  2.48085 8.8671  3.61385 8.8671  L 4.68855 8.8671  L 4.68855 8.8374  L 13.8037 8.8374  L 13.8037 8.8671  L 14.87895 8.8671  C 16.0114 8.86765  16.93375 9.8241  16.93375 10.99945  Z " fill-rule="nonzero" fill="#d7d7d7" stroke="none" transform="matrix(1 0 0 1 50 104 )" />
  </g>
</svg>
